<?xml version="1.0" encoding="UTF-8"?>
<svg id="Layer_1" xmlns="http://www.w3.org/2000/svg" version="1.1" viewBox="0 0 256.53 212.24">
  <!-- Generator: Adobe Illustrator 30.5.1, SVG Export Plug-In . SVG Version: 2.1.4 Build 3)  -->
  <defs>
    <style>
      .st0 {
        fill: #fff;
      }
    </style>
  </defs>
  <path class="st0" d="M210.93,127.01h45.6v-27.98c0-26.73-16.07-49.78-39.05-60C207.27,16.06,184.22,0,157.5,0H0v42.61l8.36,8.36,25.07,25.07h0s.08,0,.08,0h8.26v-34.26h149.14c7.09,0,13.89,1.3,20.16,3.67,2.37,6.28,3.67,13.07,3.67,20.16v3.22c0,9.05-7.35,16.4-16.39,16.4H8.36v-22.54L0,54.34v58.87c0,26.73,16.07,49.78,39.05,60,10.21,22.98,33.26,39.04,59.98,39.04h157.5v-42.62h-.06l-33.37-33.37h-8.36v34.2H65.61c-7.09,0-13.89-1.3-20.16-3.67-2.37-6.28-3.67-13.07-3.67-20.16v-19.62h169.15ZM190.92,33.42H33.42v30.79l-25.07-25.07V8.36h149.14c20.39,0,38.32,10.71,48.46,26.81-4.83-1.14-9.87-1.74-15.04-1.74ZM223.1,68.83v-3.22c0-5.17-.6-10.21-1.74-15.04,16.09,10.14,26.81,28.08,26.81,48.46v19.62h-25.07v-8.67c0-8.57-4.38-16.14-11.01-20.58,6.63-4.44,11.01-12.01,11.01-20.58ZM65.61,178.82h157.49v-30.74l25.07,25.07v30.74H99.03c-20.39,0-38.32-10.71-48.46-26.81,4.83,1.14,9.87,1.74,15.04,1.74ZM35.16,161.67c-16.09-10.14-26.81-28.08-26.81-48.46v-19.62h190c9.04,0,16.39,7.35,16.39,16.4v8.67H33.42v27.98c0,5.17.6,10.21,1.74,15.04Z"/>
</svg>