<?xml version="1.0" encoding="UTF-8"?>
<svg id="Layer_1" xmlns="http://www.w3.org/2000/svg" version="1.1" viewBox="0 0 23.18 28.34">
  <!-- Generator: Adobe Illustrator 30.1.0, SVG Export Plug-In . SVG Version: 2.1.1 Build 136)  -->
  <path d="M5.76,13.86C2.14,13.86.09,12.26,0,9.44h2.65c.19,1.6,1.1,2.24,3,2.24,1.38,0,2.59-.48,2.59-1.71,0-1.3-1.27-1.56-3.3-2.03C2.55,7.4.37,6.76.37,3.99.37,1.36,2.51,0,5.48,0s4.94,1.47,5.14,4.15h-2.59c-.15-1.34-1.19-2.01-2.57-2.01-1.45,0-2.4.61-2.4,1.56,0,1.08.93,1.4,2.91,1.83,2.74.6,4.97,1.25,4.97,4.12,0,2.7-2.18,4.21-5.18,4.21Z"/>
  <path d="M11.3,2.51V.24h10.71v2.27h-4.01v11.05h-2.7V2.51h-4.01Z"/>
  <path d="M0,28.34v-13.32h6.11c2.57,0,4.28,1.49,4.28,3.71,0,1.56-.73,2.76-2.44,3.22v.06c1.23.35,1.86,1.06,2.03,2.68.19,1.88.11,3.32.58,3.52v.13h-2.59c-.34-.15-.37-1.64-.48-3.07-.11-1.45-.93-2.27-2.61-2.27h-2.18v5.35H0ZM2.7,17.2v3.71h2.87c1.47,0,2.2-.76,2.2-1.83s-.69-1.88-2.12-1.88h-2.94Z"/>
  <path d="M12.13,28.34v-13.32h5.2c3.56,0,5.85,2.87,5.85,6.8,0,2.16-.73,4.06-2.12,5.23-.99.82-2.27,1.29-3.95,1.29h-4.97ZM14.84,26.02h2.09c2.53,0,3.52-1.55,3.52-4.19s-1.16-4.49-3.45-4.49h-2.16v8.68Z"/>
</svg>